<?xml version="1.0" encoding="utf-8"?>
<!-- Generator: Adobe Illustrator 25.2.3, SVG Export Plug-In . SVG Version: 6.00 Build 0)  -->
<svg version="1.0" id="Layer_1" xmlns="http://www.w3.org/2000/svg" xmlns:xlink="http://www.w3.org/1999/xlink" x="0px" y="0px"
	 viewBox="0 0 791 504" style="enable-background:new 0 0 791 504;" xml:space="preserve">
<style type="text/css">
	.st0{fill:#EE3124;}
	.st1{fill:#F57F29;}
	.st2{fill:#FFF000;}
	.st3{fill:#58B947;}
	.st4{fill:#0054A6;}
	.st5{fill:#9F248F;}
	.st6{fill:#603917;}
	.st7{fill:#7CC0EA;}
	.st8{fill:#F498C0;}
	.st9{fill:#FFFFFF;}
</style>
<rect x="-1.64" class="st0" width="792.64" height="83.57"/>
<rect x="-1.64" y="83.57" class="st1" width="792.64" height="84.47"/>
<rect x="-1.64" y="168.04" class="st2" width="792.64" height="84.47"/>
<rect x="-1.64" y="252.51" class="st3" width="792.64" height="84.47"/>
<rect x="-1.64" y="336.98" class="st4" width="792.64" height="84.47"/>
<rect x="-1.64" y="421.44" class="st5" width="792.64" height="82.56"/>
<g>
	
		<rect x="-735.56" y="-209.04" transform="matrix(0.7071 -0.7071 0.7071 0.7071 -258.806 -119.5674)" width="923.65" height="923.32"/>
	
		<rect x="-690.82" y="-164.51" transform="matrix(0.7071 0.7071 -0.7071 0.7071 98.3769 267.5834)" class="st6" width="834" height="834.1"/>
	
		<rect x="-645.63" y="-119.57" transform="matrix(0.7071 0.7071 -0.7071 0.7071 98.5473 267.5128)" class="st7" width="743.98" height="744.56"/>
	
		<rect x="-601.65" y="-75.12" transform="matrix(0.7071 0.7071 -0.7071 0.7071 98.2177 267.6493)" class="st8" width="655.36" height="655.01"/>
	
		<rect x="-556.47" y="-30.18" transform="matrix(0.7071 0.7071 -0.7071 0.7071 98.3881 267.5788)" class="st9" width="565.33" height="565.47"/>
</g>
</svg>
