<?xml version="1.0" encoding="utf-8"?>
<!-- Generator: Adobe Illustrator 25.2.3, SVG Export Plug-In . SVG Version: 6.00 Build 0)  -->
<svg version="1.0" id="publicdomainvectors.org" xmlns="http://www.w3.org/2000/svg" xmlns:xlink="http://www.w3.org/1999/xlink"
	 x="0px" y="0px" viewBox="0 0 500 500" style="enable-background:new 0 0 500 500;" xml:space="preserve">
<style type="text/css">
	.st0{fill-rule:evenodd;clip-rule:evenodd;fill:#C7EAFF;}
	.st1{fill-rule:evenodd;clip-rule:evenodd;fill:#E86625;}
	.st2{fill-rule:evenodd;clip-rule:evenodd;fill:#FA7B3C;}
	.st3{fill-rule:evenodd;clip-rule:evenodd;fill:#FF9100;}
	.st4{fill-rule:evenodd;clip-rule:evenodd;fill:#FFA32B;}
	.st5{fill-rule:evenodd;clip-rule:evenodd;fill:#FFCC00;}
	.st6{fill-rule:evenodd;clip-rule:evenodd;fill:#FFDD30;}
	.st7{fill-rule:evenodd;clip-rule:evenodd;fill:#A7BF1C;}
	.st8{fill-rule:evenodd;clip-rule:evenodd;fill:#BAD526;}
	.st9{fill-rule:evenodd;clip-rule:evenodd;fill:#91D5E3;}
	.st10{fill-rule:evenodd;clip-rule:evenodd;fill:#A6E8F5;}
	.st11{fill-rule:evenodd;clip-rule:evenodd;fill:#2DA3CA;}
	.st12{fill-rule:evenodd;clip-rule:evenodd;fill:#3EB8E0;}
	.st13{fill-rule:evenodd;clip-rule:evenodd;fill:#CC66CC;}
	.st14{fill-rule:evenodd;clip-rule:evenodd;fill:#DE74DE;}
	.st15{fill-rule:evenodd;clip-rule:evenodd;fill:#FFFFFF;}
	.st16{fill-rule:evenodd;clip-rule:evenodd;fill:#C8E332;}
	.st17{fill-rule:evenodd;clip-rule:evenodd;fill:#82970A;}
	.st18{fill-rule:evenodd;clip-rule:evenodd;fill:#94AB13;}
	.st19{fill:#332D2A;}
</style>
<g>
	<rect x="0.54" y="-0.18" class="st0" width="499.83" height="499.83"/>
	<path class="st1" d="M250.46,33.25c119.56,0,216.48,96.92,216.48,216.48c0,119.56-96.92,216.48-216.48,216.48
		c-119.56,0-216.48-96.92-216.48-216.48C33.97,130.17,130.9,33.25,250.46,33.25L250.46,33.25z M250.46,47.71
		c-111.57,0-202.02,90.45-202.02,202.03c0,111.57,90.45,202.02,202.02,202.02c111.57,0,202.02-90.45,202.02-202.02
		C452.48,138.16,362.03,47.71,250.46,47.71z"/>
	<path class="st2" d="M250.46,33.25c7.07,0,14.05,0.35,20.95,1.01c9.53,4.33,17.8,10.72,24.32,18.54
		c-14.55-3.33-29.71-5.1-45.27-5.1c-44.72,0-86.04,14.54-119.51,39.14c-5.15-2.51-10.58-4.45-16.19-5.78
		C151.88,51.16,199.07,33.25,250.46,33.25z"/>
	<path class="st3" d="M250.46,47.71c111.57,0,202.02,90.45,202.02,202.03c0,111.57-90.45,202.02-202.02,202.02
		c-111.57,0-202.02-90.45-202.02-202.02C48.43,138.16,138.88,47.71,250.46,47.71L250.46,47.71z M250.46,62.17
		c-103.59,0-187.56,83.98-187.56,187.56c0,103.59,83.98,187.56,187.56,187.56c103.59,0,187.56-83.97,187.56-187.56
		C438.02,146.15,354.05,62.17,250.46,62.17z"/>
	<path class="st4" d="M250.46,47.71c15.57,0,30.72,1.76,45.27,5.1c4.46,5.35,8.1,11.38,10.77,17.88
		c-17.7-5.53-36.52-8.52-56.04-8.52c-39.41,0-75.97,12.16-106.16,32.93c-4.17-3.2-8.65-5.96-13.35-8.25
		C164.41,62.25,205.74,47.71,250.46,47.71z"/>
	<path class="st5" d="M250.46,62.17c103.59,0,187.56,83.98,187.56,187.56c0,103.59-83.97,187.56-187.56,187.56
		c-103.59,0-187.56-83.97-187.56-187.56C62.89,146.15,146.87,62.17,250.46,62.17L250.46,62.17z M250.46,76.63
		c-95.6,0-173.1,77.5-173.1,173.1c0,95.6,77.5,173.1,173.1,173.1c95.6,0,173.1-77.5,173.1-173.1
		C423.56,154.13,346.06,76.63,250.46,76.63z"/>
	<path class="st6" d="M250.46,62.17c19.52,0,38.34,2.98,56.04,8.52c1.92,4.68,3.33,9.6,4.19,14.7c0.12,0.71,0.23,1.42,0.32,2.13
		c-18.85-7.04-39.25-10.9-60.55-10.9c-35.21,0-67.96,10.52-95.29,28.58c-3.32-3.73-6.96-7.11-10.87-10.11
		C174.48,74.33,211.05,62.17,250.46,62.17z"/>
	<path class="st7" d="M250.46,76.63c95.6,0,173.1,77.5,173.1,173.1c0,95.6-77.5,173.1-173.1,173.1c-95.6,0-173.1-77.5-173.1-173.1
		C77.35,154.13,154.85,76.63,250.46,76.63L250.46,76.63z M250.46,91.09c-87.62,0-158.64,71.03-158.64,158.64
		c0,87.61,71.03,158.64,158.64,158.64c87.62,0,158.64-71.03,158.64-158.64C409.1,162.12,338.07,91.09,250.46,91.09z"/>
	<path class="st8" d="M250.46,76.63c21.3,0,41.7,3.86,60.55,10.9c0.71,5.25,0.8,10.5,0.31,15.67c-18.74-7.79-39.29-12.1-60.86-12.1
		c-32,0-61.79,9.49-86.71,25.79c-1.73-2.88-3.66-5.67-5.77-8.33c-0.91-1.14-1.84-2.25-2.8-3.33
		C182.5,87.15,215.25,76.63,250.46,76.63z"/>
	<path class="st9" d="M250.46,91.09c87.62,0,158.64,71.03,158.64,158.64c0,87.61-71.03,158.64-158.64,158.64
		c-87.62,0-158.64-71.03-158.64-158.64C91.81,162.12,162.84,91.09,250.46,91.09L250.46,91.09z M250.46,105.55
		c-79.63,0-144.18,64.55-144.18,144.18c0,79.63,64.55,144.18,144.18,144.18s144.18-64.55,144.18-144.18
		C394.64,170.1,330.09,105.55,250.46,105.55z"/>
	<path class="st10" d="M250.46,91.09c21.57,0,42.12,4.31,60.86,12.1c-0.47,4.93-1.47,9.78-2.97,14.46
		c-17.72-7.78-37.3-12.11-57.89-12.11c-29.77,0-57.43,9.02-80.4,24.48c-1.68-4.55-3.79-8.96-6.31-13.16
		C188.67,100.58,218.45,91.09,250.46,91.09z"/>
	<path class="st11" d="M250.46,105.55c79.63,0,144.18,64.55,144.18,144.18c0,79.63-64.55,144.18-144.18,144.18
		s-144.18-64.55-144.18-144.18C106.28,170.1,170.83,105.55,250.46,105.55L250.46,105.55z M250.46,120.01
		c-71.64,0-129.72,58.08-129.72,129.72c0,71.64,58.08,129.72,129.72,129.72c71.64,0,129.72-58.08,129.72-129.72
		C380.18,178.09,322.1,120.01,250.46,120.01z"/>
	<path class="st12" d="M250.46,105.55c20.59,0,40.17,4.33,57.89,12.11c-1.47,4.6-3.43,9.03-5.84,13.23
		c-15.93-6.99-33.54-10.87-52.05-10.87c-28.61,0-55.05,9.27-76.5,24.96c-0.8-5.09-2.11-10.1-3.9-14.94
		C193.03,114.57,220.69,105.55,250.46,105.55z"/>
	<path class="st13" d="M250.46,120.01c71.64,0,129.72,58.08,129.72,129.72c0,71.64-58.08,129.72-129.72,129.72
		c-71.64,0-129.72-58.08-129.72-129.72C120.74,178.09,178.81,120.01,250.46,120.01L250.46,120.01z M250.46,134.47
		c-63.66,0-115.26,51.6-115.26,115.26C135.2,313.39,186.8,365,250.46,365c63.66,0,115.26-51.61,115.26-115.26
		C365.72,186.08,314.12,134.47,250.46,134.47z"/>
	<path class="st14" d="M250.46,120.01c18.51,0,36.12,3.89,52.05,10.87c-2.45,4.27-5.38,8.3-8.75,12
		c-13.37-5.42-27.98-8.42-43.3-8.42c-29,0-55.5,10.71-75.76,28.4c0.44-6,0.18-12.01-0.74-17.9
		C195.4,129.28,221.85,120.01,250.46,120.01z"/>
	<path class="st15" d="M500.37,78.97v231.78c-6.94,1.86-14.24,2.85-21.77,2.85c-18.67,0-35.91-6.1-49.86-16.41
		c-5.24,4.88-11.83,8.34-19.14,9.75c2.37,7.64,3.65,15.76,3.65,24.18c0,44.96-36.44,81.4-81.4,81.4
		c-33.73,0-62.67-20.52-75.02-49.75c-7.75,4.2-16.63,6.58-26.06,6.58c-23.14,0-42.93-14.35-50.95-34.64
		c-11.27,16.83-30.45,27.91-52.22,27.91c-34.68,0-62.8-28.12-62.8-62.8c0-0.75,0.02-1.49,0.04-2.23
		c-8.84,4.27-18.75,6.67-29.22,6.67c-12.86,0-24.88-3.62-35.1-9.88V85.96c21.6,11.18,36.37,33.74,36.37,59.74
		c0,8.53-1.59,16.68-4.48,24.18c1.07-0.05,2.14-0.08,3.22-0.08c37.13,0,67.24,30.1,67.24,67.24c0,1.73-0.07,3.45-0.19,5.15
		c7.64-3.31,16.07-5.15,24.93-5.15c28.11,0,51.91,18.48,59.92,43.95c10.02-12.88,25.67-21.17,43.25-21.17c0.11,0,0.22,0,0.33,0
		c-0.21-1.89-0.33-3.8-0.33-5.75c0-27.86,22.58-50.45,50.45-50.45c26.4,0,48.05,20.27,50.26,46.1c0.13,0,0.25,0,0.37,0
		c11.81,0,23.03,2.52,33.15,7.04c4.29-13.41,15.62-23.66,29.65-26.39c0-0.24-0.01-0.48-0.01-0.72c0-38.28,25.62-70.58,60.66-80.67
		c-1.49-4.99-2.3-10.27-2.3-15.74C453.01,105.51,473.63,82.59,500.37,78.97z"/>
	<path class="st7" d="M0.54,295.08V273.1c2.18-1.54,4.85-2.44,7.72-2.44c5.17,0,9.65,2.92,11.9,7.2c1.41-0.42,2.9-0.64,4.44-0.64
		c2.82,0,5.46,0.75,7.74,2.06c-0.05-0.51-0.08-1.03-0.08-1.55c0-8.34,6.76-15.09,15.09-15.09c8.26,0,14.97,6.64,15.09,14.87
		c0.76-0.18,1.56-0.28,2.38-0.28c3.63,0,6.81,1.9,8.61,4.77c1.22-9.26,9.14-16.4,18.73-16.4c9.12,0,16.73,6.46,18.5,15.05
		c1.13-0.43,2.36-0.67,3.64-0.67c5.61,0,10.15,4.54,10.15,10.15c0,5.6-4.54,10.15-10.15,10.15c-3.09,0-5.86-1.38-7.73-3.57
		c-3.47,4.09-8.64,6.68-14.42,6.68c-8.2,0-15.19-5.23-17.8-12.54c-1.42,3.89-5.15,6.68-9.54,6.68c-4.47,0-8.27-2.89-9.62-6.91
		c-2.29,1.4-4.97,2.2-7.85,2.2c-2.64,0-5.12-0.68-7.27-1.87c0.07,0.61,0.11,1.23,0.11,1.87c0,8.61-6.98,15.59-15.59,15.59
		c-7,0-12.92-4.61-14.89-10.97c-0.47,0.05-0.95,0.08-1.44,0.08C5.39,297.52,2.73,296.61,0.54,295.08L0.54,295.08z M272.76,295.83
		c7.76,0,14.05,6.29,14.05,14.06c0,7.76-6.29,14.06-14.05,14.06c-7.76,0-14.06-6.29-14.06-14.06
		C258.71,302.12,265,295.83,272.76,295.83L272.76,295.83z M233.62,294.19c4.13,0,7.48,3.35,7.48,7.48c0,4.13-3.35,7.48-7.48,7.48
		c-3.02,0-5.63-1.8-6.81-4.38c-2.52,2.26-5.85,3.64-9.5,3.64c-7.85,0-14.22-6.37-14.22-14.22c0-7.85,6.37-14.22,14.22-14.22
		c7.85,0,14.22,6.37,14.22,14.22c0,0.1,0,0.2,0,0.3C232.2,294.29,232.9,294.19,233.62,294.19L233.62,294.19z M183.96,287.37
		c4.96,0,8.99,4.02,8.99,8.99c0,4.96-4.02,8.99-8.99,8.99c-2.8,0-5.29-1.28-6.94-3.28c-2.74,3.1-6.74,5.05-11.2,5.05
		c-4.43,0-8.4-1.92-11.14-4.98c-1.85,1.98-4.48,3.21-7.41,3.21c-5.6,0-10.15-4.54-10.15-10.15c0-5.6,4.54-10.15,10.15-10.15
		c1.74,0,3.38,0.44,4.81,1.21c2.29-5.31,7.58-9.03,13.73-9.03c6.87,0,12.66,4.64,14.41,10.96
		C181.36,287.66,182.63,287.37,183.96,287.37z"/>
	<path class="st16" d="M500.37,385.83v113.82H0.54V287.82c48.89-2.45,101.74-1.32,156.88,3.91
		C294.39,304.71,417.18,340.21,500.37,385.83z"/>
	<path class="st8" d="M0.54,477.12V303.38c65.1,23.2,120.23,68.79,155.2,129.1L0.54,477.12z"/>
	<path class="st17" d="M162.6,369.1c-3.8,5.86-10.4,9.74-17.9,9.74c-11.77,0-21.32-9.54-21.32-21.32c0-10.78,8.01-19.69,18.4-21.12
		c2.79-11.99,13.54-20.92,26.38-20.92c14.96,0,27.09,12.13,27.09,27.09c0,14.96-12.13,27.09-27.09,27.09
		C166.26,369.67,164.4,369.47,162.6,369.1L162.6,369.1z M500.37,232.09v53.87c-6.4,5.73-14.84,9.21-24.11,9.21
		c-9.39,0-17.95-3.58-24.38-9.46c-4.61,6.98-12.53,11.58-21.52,11.58c-5.18,0-10-1.53-14.04-4.16c0.01,0.34,0.02,0.69,0.02,1.03
		c0,11.77-9.54,21.32-21.32,21.32c-11.21,0-20.4-8.65-21.25-19.64c-6.2,6.72-15.07,10.93-24.93,10.93c-5.94,0-11.51-1.53-16.37-4.21
		c0.2,1.37,0.3,2.78,0.3,4.21c0,16.25-13.18,29.43-29.43,29.43c-16.26,0-29.43-13.18-29.43-29.43c0-16.26,13.18-29.43,29.43-29.43
		c4.41,0,8.6,0.97,12.35,2.71c-0.5-2.32-0.77-4.72-0.77-7.19c0-18.73,15.18-33.91,33.91-33.91c18.73,0,33.91,15.18,33.91,33.91
		c0,1.37-0.08,2.73-0.24,4.06c3.51-2.55,7.83-4.06,12.51-4.06c3.54,0,6.88,0.86,9.82,2.4c-0.18-1.22-0.27-2.46-0.27-3.73
		c0-14.24,11.54-25.77,25.77-25.77c4.07,0,7.92,0.94,11.34,2.62c4.55-14.77,18.3-25.5,34.55-25.5
		C485.53,222.88,493.98,226.36,500.37,232.09L500.37,232.09z M221.92,315.49c7.47,0,13.53,6.06,13.53,13.53
		c0,7.47-6.06,13.53-13.53,13.53c-7.47,0-13.53-6.06-13.53-13.53C208.39,321.55,214.44,315.49,221.92,315.49z"/>
	<path class="st7" d="M500.37,277.34v222.31H0.54V456c90.62-86.83,258.55-155.8,450.78-174.94
		C467.87,279.42,484.22,278.19,500.37,277.34z"/>
	<path class="st18" d="M500.37,365.32v134.33H12.92C153.66,434.43,325.25,385.27,500.37,365.32z"/>
	<path class="st18" d="M500.37,335.09v135.65c-74.1-69.24-164.4-119.32-263.03-145.37c37.02-12.06,76.32-22.25,117.32-30.2
		C404.88,300.8,454.05,314.22,500.37,335.09L500.37,335.09z M360.6,499.65c-58.11-57.23-126.49-105.56-203.06-143.83
		c-30.58,13.54-58.83,28.43-84.28,44.41c46.98,25.63,85.8,59.47,114.92,99.43H360.6z"/>
	<path class="st17" d="M500.37,365.32v105.42c-36.24-33.87-76.36-63.15-119.44-87.27C420.35,375.99,460.27,369.89,500.37,365.32
		L500.37,365.32z M141.08,447.78c36.63-12.88,74.53-24.67,113.33-35.2c38.34,26.13,73.85,55.22,106.19,87.07H188.18
		C174.55,480.95,158.8,463.58,141.08,447.78z"/>
</g>
<g>
	<g>
		<g>
			<path class="st19" d="M157.23,489.7v0.25c0.37-0.48,0.76-0.83,1.16-1.05c0.4-0.23,0.86-0.34,1.37-0.34
				c0.61,0,1.17,0.17,1.68,0.49c0.51,0.33,0.91,0.8,1.21,1.44c0.3,0.63,0.44,1.38,0.44,2.24c0,0.63-0.08,1.22-0.25,1.75
				c-0.17,0.53-0.41,0.98-0.71,1.34c-0.3,0.36-0.66,0.64-1.06,0.83c-0.41,0.2-0.85,0.29-1.32,0.29c-0.57,0-1.04-0.12-1.43-0.36
				c-0.39-0.24-0.75-0.58-1.1-1.04v3.1c0,0.91-0.32,1.36-0.95,1.36c-0.37,0-0.62-0.12-0.74-0.35c-0.12-0.24-0.18-0.58-0.18-1.03
				v-8.91c0-0.39,0.08-0.69,0.25-0.88c0.17-0.19,0.39-0.29,0.67-0.29c0.28,0,0.51,0.1,0.68,0.3
				C157.14,489.04,157.23,489.33,157.23,489.7z M161.11,492.71c0-0.55-0.08-1.02-0.24-1.4c-0.16-0.39-0.38-0.69-0.66-0.91
				c-0.28-0.21-0.59-0.31-0.94-0.31c-0.54,0-1.01,0.23-1.38,0.68c-0.38,0.45-0.56,1.11-0.56,1.98c0,0.82,0.19,1.46,0.56,1.91
				c0.38,0.46,0.84,0.69,1.39,0.69c0.33,0,0.63-0.1,0.92-0.3c0.28-0.2,0.5-0.5,0.67-0.89C161.03,493.75,161.11,493.27,161.11,492.71
				z"/>
			<path class="st19" d="M169.83,495.77v-0.26c-0.24,0.31-0.49,0.57-0.75,0.78c-0.26,0.22-0.55,0.37-0.85,0.47
				c-0.31,0.1-0.66,0.16-1.06,0.16c-0.48,0-0.9-0.1-1.29-0.31c-0.38-0.21-0.67-0.49-0.88-0.85c-0.25-0.44-0.37-1.07-0.37-1.89v-4.09
				c0-0.41,0.09-0.72,0.27-0.92c0.18-0.2,0.41-0.31,0.71-0.31c0.3,0,0.54,0.1,0.73,0.31c0.18,0.21,0.27,0.52,0.27,0.92v3.31
				c0,0.48,0.04,0.88,0.11,1.2c0.08,0.33,0.22,0.58,0.42,0.77c0.2,0.18,0.47,0.27,0.81,0.27c0.34,0,0.65-0.1,0.94-0.31
				c0.3-0.2,0.51-0.47,0.65-0.81c0.11-0.29,0.17-0.93,0.17-1.92v-2.51c0-0.4,0.09-0.71,0.28-0.92c0.18-0.21,0.42-0.31,0.71-0.31
				c0.29,0,0.53,0.1,0.71,0.31c0.18,0.2,0.26,0.51,0.26,0.92v5.98c0,0.39-0.08,0.69-0.25,0.88c-0.17,0.2-0.39,0.29-0.66,0.29
				c-0.27,0-0.49-0.1-0.67-0.3C169.91,496.43,169.83,496.14,169.83,495.77z"/>
		</g>
		<g>
			<path class="st19" d="M175.47,486.65v3.16c0.37-0.41,0.75-0.71,1.13-0.93c0.39-0.21,0.87-0.32,1.44-0.32
				c0.66,0,1.23,0.17,1.73,0.49c0.49,0.33,0.88,0.8,1.15,1.42c0.28,0.62,0.41,1.35,0.41,2.2c0,0.63-0.08,1.2-0.23,1.72
				c-0.15,0.52-0.37,0.97-0.66,1.36c-0.29,0.38-0.64,0.67-1.06,0.89c-0.41,0.2-0.87,0.31-1.37,0.31c-0.3,0-0.59-0.04-0.86-0.11
				c-0.27-0.08-0.5-0.17-0.68-0.3c-0.19-0.12-0.35-0.25-0.49-0.38c-0.13-0.13-0.31-0.33-0.52-0.59v0.2c0,0.39-0.09,0.68-0.27,0.88
				c-0.18,0.2-0.41,0.3-0.68,0.3c-0.28,0-0.5-0.1-0.67-0.3c-0.17-0.2-0.25-0.5-0.25-0.88v-9.02c0-0.42,0.08-0.73,0.24-0.95
				c0.16-0.22,0.38-0.32,0.68-0.32c0.3,0,0.54,0.1,0.7,0.31C175.39,485.98,175.47,486.27,175.47,486.65z M175.56,492.79
				c0,0.82,0.18,1.45,0.54,1.89c0.36,0.44,0.83,0.66,1.42,0.66c0.5,0,0.92-0.23,1.29-0.68c0.36-0.45,0.54-1.09,0.54-1.94
				c0-0.55-0.08-1.02-0.23-1.41c-0.15-0.4-0.37-0.7-0.64-0.91c-0.28-0.21-0.6-0.32-0.96-0.32c-0.38,0-0.71,0.11-1.01,0.32
				c-0.3,0.21-0.53,0.52-0.7,0.93C175.65,491.74,175.56,492.22,175.56,492.79z"/>
		</g>
		<g>
			<path class="st19" d="M182.73,495.68v-8.95c0-0.41,0.09-0.73,0.26-0.94c0.18-0.21,0.42-0.32,0.72-0.32s0.54,0.1,0.72,0.31
				c0.18,0.21,0.28,0.52,0.28,0.94v8.95c0,0.42-0.1,0.73-0.28,0.95c-0.18,0.2-0.43,0.31-0.72,0.31c-0.29,0-0.52-0.11-0.71-0.33
				C182.82,496.4,182.73,496.09,182.73,495.68z"/>
			<path class="st19" d="M187.75,487.58c-0.28,0-0.51-0.09-0.71-0.27c-0.19-0.18-0.29-0.43-0.29-0.75c0-0.29,0.1-0.53,0.3-0.72
				c0.2-0.19,0.43-0.28,0.7-0.28c0.26,0,0.48,0.08,0.68,0.25c0.2,0.17,0.3,0.42,0.3,0.75c0,0.32-0.1,0.57-0.29,0.75
				C188.24,487.49,188.01,487.58,187.75,487.58z M188.73,489.72v5.96c0,0.42-0.1,0.73-0.28,0.94c-0.19,0.21-0.43,0.32-0.72,0.32
				c-0.29,0-0.53-0.11-0.71-0.32c-0.18-0.22-0.27-0.53-0.27-0.93v-5.9c0-0.4,0.09-0.71,0.27-0.92c0.18-0.21,0.42-0.31,0.71-0.31
				c0.29,0,0.53,0.1,0.72,0.31C188.63,489.06,188.73,489.35,188.73,489.72z"/>
			<path class="st19" d="M197.85,494.38c0,0.26-0.07,0.53-0.22,0.82c-0.15,0.29-0.37,0.57-0.68,0.83c-0.3,0.26-0.68,0.48-1.14,0.64
				c-0.46,0.17-0.98,0.24-1.55,0.24c-1.22,0-2.18-0.37-2.86-1.12c-0.68-0.74-1.03-1.74-1.03-2.99c0-0.85,0.16-1.6,0.47-2.25
				c0.31-0.65,0.77-1.15,1.36-1.51c0.59-0.36,1.31-0.54,2.13-0.54c0.51,0,0.98,0.08,1.41,0.23c0.43,0.16,0.79,0.36,1.09,0.6
				c0.3,0.25,0.52,0.51,0.68,0.79c0.16,0.28,0.23,0.54,0.23,0.78c0,0.24-0.09,0.45-0.26,0.63c-0.18,0.17-0.39,0.26-0.64,0.26
				c-0.17,0-0.3-0.05-0.41-0.14c-0.11-0.09-0.23-0.22-0.37-0.42c-0.24-0.38-0.49-0.67-0.76-0.87c-0.26-0.19-0.6-0.29-1-0.29
				c-0.59,0-1.06,0.24-1.42,0.72c-0.36,0.48-0.54,1.13-0.54,1.96c0,0.39,0.05,0.75,0.14,1.07c0.09,0.33,0.22,0.6,0.4,0.83
				c0.17,0.23,0.38,0.4,0.63,0.52c0.25,0.12,0.52,0.18,0.81,0.18c0.4,0,0.74-0.09,1.02-0.29c0.28-0.19,0.53-0.49,0.75-0.88
				c0.12-0.24,0.25-0.42,0.39-0.55c0.14-0.13,0.31-0.19,0.52-0.19c0.24,0,0.44,0.09,0.6,0.29
				C197.77,493.96,197.85,494.17,197.85,494.38z"/>
			<path class="st19" d="M205,495.76v-0.2c-0.27,0.32-0.53,0.58-0.79,0.77c-0.25,0.2-0.54,0.35-0.84,0.46
				c-0.3,0.1-0.63,0.15-0.99,0.15c-0.47,0-0.91-0.11-1.32-0.31c-0.4-0.22-0.75-0.51-1.05-0.9c-0.29-0.39-0.52-0.84-0.67-1.37
				c-0.15-0.52-0.23-1.09-0.23-1.7c0-1.29,0.3-2.3,0.91-3.02c0.61-0.72,1.4-1.08,2.38-1.08c0.57,0,1.05,0.1,1.44,0.31
				c0.39,0.2,0.77,0.51,1.14,0.94v-3.05c0-0.42,0.08-0.74,0.24-0.96c0.16-0.22,0.39-0.33,0.69-0.33c0.3,0,0.53,0.1,0.69,0.3
				c0.16,0.2,0.24,0.49,0.24,0.88v9.11c0,0.39-0.09,0.69-0.26,0.88c-0.17,0.2-0.4,0.3-0.67,0.3c-0.27,0-0.49-0.1-0.67-0.31
				C205.09,496.43,205,496.14,205,495.76z M201.11,492.73c0,0.56,0.08,1.03,0.25,1.43c0.17,0.39,0.39,0.69,0.68,0.89
				c0.29,0.2,0.61,0.3,0.95,0.3c0.35,0,0.67-0.1,0.95-0.28c0.29-0.19,0.52-0.48,0.69-0.87c0.17-0.39,0.26-0.88,0.26-1.46
				c0-0.55-0.09-1.02-0.26-1.42c-0.17-0.4-0.4-0.7-0.7-0.91c-0.29-0.21-0.61-0.31-0.96-0.31c-0.36,0-0.68,0.11-0.97,0.32
				c-0.28,0.21-0.51,0.52-0.66,0.92C201.19,491.74,201.11,492.2,201.11,492.73z"/>
			<path class="st19" d="M216.26,492.75c0,0.61-0.09,1.18-0.28,1.7c-0.18,0.51-0.45,0.96-0.79,1.34c-0.35,0.37-0.77,0.65-1.25,0.86
				c-0.48,0.2-1.03,0.3-1.63,0.3c-0.6,0-1.14-0.1-1.61-0.3c-0.48-0.2-0.89-0.49-1.25-0.87c-0.35-0.38-0.61-0.82-0.8-1.33
				c-0.18-0.52-0.27-1.08-0.27-1.7c0-0.62,0.09-1.2,0.27-1.71c0.18-0.52,0.45-0.96,0.79-1.33c0.34-0.37,0.76-0.65,1.25-0.85
				c0.49-0.2,1.02-0.3,1.61-0.3c0.6,0,1.14,0.1,1.63,0.3c0.49,0.2,0.9,0.49,1.25,0.86c0.35,0.37,0.61,0.82,0.79,1.33
				C216.17,491.56,216.26,492.13,216.26,492.75z M214.28,492.75c0-0.84-0.18-1.5-0.53-1.96c-0.36-0.47-0.83-0.7-1.43-0.7
				c-0.39,0-0.73,0.11-1.02,0.31c-0.29,0.21-0.52,0.52-0.68,0.93c-0.16,0.4-0.24,0.88-0.24,1.42c0,0.54,0.08,1.01,0.24,1.41
				c0.16,0.4,0.38,0.71,0.68,0.93c0.29,0.21,0.64,0.32,1.03,0.32c0.6,0,1.08-0.23,1.43-0.71
				C214.1,494.23,214.28,493.58,214.28,492.75z"/>
			<path class="st19" d="M224.61,491.04c-0.15,0.35-0.22,0.96-0.22,1.85v2.74c0,0.43-0.09,0.76-0.28,0.98
				c-0.19,0.22-0.44,0.33-0.75,0.33c-0.3,0-0.54-0.11-0.72-0.33c-0.19-0.22-0.28-0.55-0.28-0.98v-3.29c0-0.52-0.02-0.92-0.05-1.21
				c-0.03-0.28-0.12-0.52-0.28-0.71c-0.15-0.19-0.38-0.28-0.71-0.28c-0.65,0-1.07,0.23-1.28,0.7c-0.21,0.46-0.3,1.13-0.3,2v2.79
				c0,0.43-0.1,0.75-0.28,0.97c-0.19,0.22-0.43,0.33-0.73,0.33c-0.3,0-0.55-0.11-0.74-0.33c-0.19-0.21-0.28-0.54-0.28-0.97v-5.91
				c0-0.39,0.08-0.68,0.25-0.89c0.17-0.2,0.4-0.3,0.68-0.3c0.27,0,0.5,0.09,0.68,0.28c0.18,0.19,0.27,0.45,0.27,0.78v0.2
				c0.34-0.43,0.71-0.75,1.1-0.94c0.39-0.2,0.83-0.3,1.3-0.3c0.5,0,0.92,0.1,1.28,0.31c0.36,0.2,0.65,0.52,0.88,0.93
				c0.33-0.42,0.69-0.74,1.07-0.94c0.38-0.2,0.8-0.31,1.27-0.31c0.54,0,1.01,0.11,1.4,0.33c0.39,0.22,0.68,0.54,0.88,0.95
				c0.17,0.37,0.25,0.96,0.25,1.76v4.03c0,0.43-0.09,0.76-0.28,0.98c-0.19,0.22-0.44,0.33-0.75,0.33c-0.3,0-0.54-0.11-0.73-0.33
				c-0.19-0.21-0.29-0.54-0.29-0.97v-3.47c0-0.44-0.02-0.8-0.05-1.07c-0.04-0.27-0.13-0.49-0.3-0.67c-0.16-0.18-0.4-0.27-0.72-0.27
				c-0.26,0-0.51,0.08-0.74,0.24C224.92,490.55,224.75,490.77,224.61,491.04L224.61,491.04z"/>
			<path class="st19" d="M235.94,495.78c-0.48,0.39-0.94,0.68-1.39,0.87c-0.45,0.2-0.95,0.29-1.5,0.29c-0.51,0-0.95-0.11-1.34-0.31
				c-0.39-0.21-0.68-0.5-0.89-0.86c-0.21-0.36-0.31-0.74-0.31-1.16c0-0.57,0.18-1.04,0.52-1.44c0.34-0.4,0.81-0.66,1.41-0.8
				c0.13-0.03,0.44-0.1,0.93-0.2c0.5-0.11,0.92-0.2,1.29-0.29c0.35-0.09,0.74-0.19,1.15-0.32c-0.03-0.55-0.13-0.95-0.31-1.21
				c-0.19-0.25-0.58-0.38-1.16-0.38c-0.5,0-0.88,0.07-1.14,0.22c-0.25,0.14-0.47,0.37-0.65,0.66c-0.18,0.29-0.31,0.48-0.38,0.58
				c-0.08,0.1-0.24,0.14-0.48,0.14c-0.23,0-0.42-0.07-0.58-0.22c-0.16-0.15-0.24-0.34-0.24-0.57c0-0.36,0.12-0.72,0.37-1.06
				c0.25-0.34,0.63-0.63,1.15-0.85c0.52-0.22,1.17-0.33,1.95-0.33c0.87,0,1.55,0.11,2.05,0.32c0.5,0.21,0.84,0.55,1.05,1.02
				c0.21,0.46,0.31,1.08,0.31,1.84c0,0.48,0,0.9,0,1.23c0,0.34-0.01,0.71-0.01,1.13c0,0.39,0.06,0.79,0.19,1.21
				c0.12,0.42,0.18,0.69,0.18,0.81c0,0.21-0.1,0.41-0.29,0.58c-0.19,0.17-0.41,0.26-0.65,0.26c-0.21,0-0.4-0.1-0.6-0.3
				C236.38,496.44,236.17,496.15,235.94,495.78z M235.82,492.79c-0.29,0.11-0.71,0.23-1.27,0.35c-0.55,0.12-0.94,0.21-1.15,0.27
				c-0.21,0.06-0.42,0.17-0.61,0.34c-0.2,0.17-0.29,0.41-0.29,0.71c0,0.32,0.12,0.58,0.34,0.8c0.23,0.22,0.53,0.33,0.89,0.33
				c0.39,0,0.75-0.09,1.08-0.27c0.33-0.18,0.58-0.41,0.73-0.69c0.18-0.31,0.27-0.83,0.27-1.55V492.79z"/>
			<path class="st19" d="M240.77,487.58c-0.27,0-0.51-0.09-0.7-0.27c-0.2-0.18-0.3-0.43-0.3-0.75c0-0.29,0.1-0.53,0.3-0.72
				c0.2-0.19,0.43-0.28,0.7-0.28c0.26,0,0.49,0.08,0.68,0.25c0.2,0.17,0.29,0.42,0.29,0.75c0,0.32-0.09,0.57-0.29,0.75
				C241.26,487.49,241.03,487.58,240.77,487.58z M241.74,489.72v5.96c0,0.42-0.09,0.73-0.28,0.94c-0.19,0.21-0.43,0.32-0.72,0.32
				c-0.29,0-0.53-0.11-0.71-0.32c-0.18-0.22-0.27-0.53-0.27-0.93v-5.9c0-0.4,0.09-0.71,0.27-0.92c0.18-0.21,0.42-0.31,0.71-0.31
				c0.29,0,0.53,0.1,0.72,0.31C241.65,489.06,241.74,489.35,241.74,489.72z"/>
		</g>
		<g>
			<path class="st19" d="M245.59,489.69v0.25c0.35-0.48,0.73-0.83,1.14-1.05c0.41-0.22,0.89-0.34,1.43-0.34
				c0.52,0,0.99,0.12,1.4,0.36c0.41,0.24,0.71,0.57,0.92,1c0.13,0.25,0.21,0.53,0.25,0.82c0.04,0.29,0.06,0.66,0.06,1.12v3.84
				c0,0.42-0.09,0.73-0.27,0.94c-0.18,0.21-0.42,0.32-0.71,0.32c-0.29,0-0.53-0.11-0.71-0.33c-0.19-0.22-0.28-0.53-0.28-0.93v-3.44
				c0-0.68-0.09-1.2-0.27-1.56c-0.18-0.36-0.55-0.54-1.09-0.54c-0.35,0-0.67,0.11-0.96,0.33c-0.29,0.22-0.5,0.52-0.64,0.9
				c-0.1,0.31-0.15,0.88-0.15,1.73v2.58c0,0.42-0.09,0.73-0.28,0.95c-0.19,0.2-0.43,0.31-0.72,0.31c-0.28,0-0.52-0.11-0.7-0.32
				c-0.19-0.22-0.28-0.53-0.28-0.93v-5.96c0-0.4,0.08-0.69,0.25-0.88c0.16-0.19,0.39-0.29,0.67-0.29c0.17,0,0.33,0.05,0.47,0.13
				c0.14,0.08,0.25,0.22,0.34,0.38C245.54,489.23,245.59,489.44,245.59,489.69z"/>
			<path class="st19" d="M253.95,489.83l1.6,4.69l1.72-4.89c0.14-0.39,0.27-0.67,0.4-0.83c0.13-0.16,0.33-0.25,0.59-0.25
				c0.25,0,0.46,0.09,0.64,0.27c0.17,0.17,0.26,0.38,0.26,0.61c0,0.09-0.02,0.19-0.05,0.31c-0.03,0.12-0.06,0.24-0.11,0.35
				c-0.04,0.1-0.08,0.22-0.14,0.36l-1.9,4.92c-0.05,0.14-0.12,0.32-0.21,0.54c-0.09,0.21-0.18,0.4-0.28,0.56
				c-0.11,0.15-0.23,0.27-0.38,0.35c-0.16,0.09-0.34,0.13-0.56,0.13c-0.28,0-0.5-0.07-0.67-0.2c-0.17-0.13-0.29-0.28-0.37-0.44
				c-0.08-0.16-0.21-0.47-0.4-0.94l-1.89-4.86c-0.04-0.12-0.09-0.24-0.14-0.36c-0.04-0.12-0.08-0.24-0.11-0.37
				c-0.03-0.13-0.05-0.24-0.05-0.32c0-0.14,0.04-0.28,0.12-0.42c0.08-0.14,0.2-0.25,0.34-0.34c0.15-0.09,0.3-0.13,0.47-0.13
				c0.33,0,0.55,0.1,0.68,0.3C253.66,489.04,253.8,489.37,253.95,489.83z"/>
		</g>
		<g>
			<path class="st19" d="M265.91,493.25h-3.87c0,0.47,0.1,0.88,0.27,1.24c0.18,0.35,0.41,0.62,0.71,0.81
				c0.29,0.18,0.62,0.27,0.97,0.27c0.24,0,0.45-0.03,0.65-0.08c0.2-0.06,0.39-0.15,0.57-0.27c0.18-0.12,0.35-0.25,0.5-0.4
				c0.15-0.14,0.36-0.33,0.6-0.57c0.1-0.1,0.25-0.14,0.43-0.14c0.21,0,0.37,0.06,0.49,0.17c0.13,0.12,0.19,0.28,0.19,0.49
				c0,0.19-0.07,0.41-0.21,0.66c-0.14,0.25-0.35,0.49-0.63,0.72c-0.28,0.23-0.64,0.41-1.07,0.57c-0.42,0.15-0.91,0.23-1.47,0.23
				c-1.27,0-2.26-0.38-2.96-1.13c-0.7-0.76-1.06-1.78-1.06-3.08c0-0.62,0.09-1.18,0.26-1.7c0.17-0.52,0.43-0.97,0.76-1.34
				c0.33-0.38,0.74-0.66,1.23-0.86c0.49-0.2,1.03-0.3,1.62-0.3c0.77,0,1.43,0.17,1.99,0.51c0.55,0.34,0.97,0.78,1.24,1.31
				c0.28,0.54,0.41,1.09,0.41,1.65c0,0.52-0.14,0.85-0.43,1C266.83,493.17,266.43,493.25,265.91,493.25z M262.04,492.07h3.59
				c-0.05-0.7-0.23-1.23-0.55-1.58c-0.32-0.35-0.73-0.52-1.25-0.52c-0.49,0-0.9,0.18-1.21,0.53
				C262.3,490.85,262.12,491.38,262.04,492.07z"/>
			<path class="st19" d="M276.31,494.38c0,0.26-0.07,0.53-0.22,0.82c-0.15,0.29-0.37,0.57-0.67,0.83c-0.3,0.26-0.68,0.48-1.14,0.64
				c-0.46,0.17-0.98,0.24-1.55,0.24c-1.23,0-2.18-0.37-2.86-1.12c-0.68-0.74-1.03-1.74-1.03-2.99c0-0.85,0.16-1.6,0.47-2.25
				c0.31-0.65,0.76-1.15,1.36-1.51c0.59-0.36,1.3-0.54,2.13-0.54c0.51,0,0.98,0.08,1.41,0.23c0.43,0.16,0.79,0.36,1.09,0.6
				c0.3,0.25,0.52,0.51,0.68,0.79c0.16,0.28,0.23,0.54,0.23,0.78c0,0.24-0.09,0.45-0.27,0.63c-0.17,0.17-0.39,0.26-0.64,0.26
				c-0.17,0-0.3-0.05-0.41-0.14c-0.11-0.09-0.23-0.22-0.37-0.42c-0.24-0.38-0.49-0.67-0.76-0.87c-0.26-0.19-0.6-0.29-1-0.29
				c-0.58,0-1.05,0.24-1.41,0.72c-0.36,0.48-0.54,1.13-0.54,1.96c0,0.39,0.05,0.75,0.14,1.07c0.09,0.33,0.23,0.6,0.4,0.83
				c0.17,0.23,0.38,0.4,0.63,0.52c0.24,0.12,0.51,0.18,0.81,0.18c0.4,0,0.74-0.09,1.02-0.29c0.28-0.19,0.53-0.49,0.75-0.88
				c0.12-0.24,0.25-0.42,0.39-0.55c0.14-0.13,0.31-0.19,0.51-0.19c0.24,0,0.44,0.09,0.6,0.29
				C276.22,493.96,276.31,494.17,276.31,494.38z"/>
			<path class="st19" d="M278.14,488.72h0.22v-1.24c0-0.33,0.01-0.59,0.03-0.78c0.02-0.19,0.06-0.35,0.14-0.49
				c0.08-0.14,0.19-0.25,0.33-0.34c0.14-0.09,0.3-0.13,0.48-0.13c0.25,0,0.48,0.1,0.68,0.29c0.13,0.13,0.22,0.29,0.26,0.48
				c0.04,0.19,0.05,0.46,0.05,0.81v1.4h0.73c0.28,0,0.5,0.07,0.64,0.21c0.15,0.14,0.22,0.31,0.22,0.53c0,0.28-0.1,0.47-0.32,0.58
				c-0.21,0.11-0.51,0.17-0.9,0.17h-0.37v3.8c0,0.32,0.01,0.57,0.03,0.75c0.03,0.17,0.09,0.32,0.18,0.42
				c0.09,0.11,0.25,0.17,0.46,0.17c0.12,0,0.27-0.02,0.47-0.07c0.19-0.04,0.35-0.06,0.46-0.06c0.16,0,0.31,0.07,0.43,0.2
				c0.12,0.14,0.19,0.3,0.19,0.5c0,0.33-0.17,0.59-0.52,0.76c-0.35,0.18-0.85,0.26-1.5,0.26c-0.62,0-1.09-0.11-1.41-0.33
				c-0.32-0.22-0.53-0.52-0.62-0.9c-0.1-0.38-0.15-0.89-0.15-1.53v-3.97h-0.26c-0.28,0-0.5-0.07-0.65-0.21
				c-0.15-0.14-0.22-0.32-0.22-0.54c0-0.22,0.08-0.39,0.23-0.53C277.62,488.79,277.84,488.72,278.14,488.72z"/>
			<path class="st19" d="M290.69,492.75c0,0.61-0.09,1.18-0.28,1.7c-0.18,0.51-0.45,0.96-0.79,1.34c-0.35,0.37-0.76,0.65-1.25,0.86
				c-0.48,0.2-1.02,0.3-1.63,0.3c-0.6,0-1.14-0.1-1.62-0.3c-0.48-0.2-0.89-0.49-1.24-0.87c-0.35-0.38-0.62-0.82-0.79-1.33
				c-0.18-0.52-0.27-1.08-0.27-1.7c0-0.62,0.09-1.2,0.27-1.71c0.19-0.52,0.45-0.96,0.79-1.33c0.35-0.37,0.76-0.65,1.25-0.85
				c0.49-0.2,1.03-0.3,1.62-0.3c0.6,0,1.14,0.1,1.63,0.3c0.49,0.2,0.9,0.49,1.25,0.86c0.34,0.37,0.61,0.82,0.79,1.33
				C290.6,491.56,290.69,492.13,290.69,492.75z M288.7,492.75c0-0.84-0.18-1.5-0.53-1.96c-0.36-0.47-0.83-0.7-1.43-0.7
				c-0.39,0-0.73,0.11-1.02,0.31c-0.3,0.21-0.52,0.52-0.68,0.93c-0.16,0.4-0.24,0.88-0.24,1.42c0,0.54,0.08,1.01,0.24,1.41
				c0.16,0.4,0.38,0.71,0.67,0.93c0.29,0.21,0.64,0.32,1.03,0.32c0.6,0,1.07-0.23,1.43-0.71
				C288.52,494.23,288.7,493.58,288.7,492.75z"/>
		</g>
		<g>
			<path class="st19" d="M294.21,493.96v1.72c0,0.42-0.09,0.73-0.28,0.95c-0.19,0.2-0.43,0.31-0.72,0.31c-0.28,0-0.52-0.11-0.7-0.32
				c-0.18-0.21-0.27-0.52-0.27-0.94v-5.75c0-0.93,0.32-1.39,0.96-1.39c0.33,0,0.56,0.11,0.71,0.32c0.14,0.22,0.22,0.54,0.24,0.96
				c0.24-0.42,0.48-0.74,0.73-0.96c0.25-0.21,0.58-0.32,0.99-0.32c0.42,0,0.82,0.11,1.21,0.32c0.39,0.22,0.59,0.51,0.59,0.86
				c0,0.25-0.09,0.46-0.25,0.62c-0.16,0.16-0.35,0.25-0.54,0.25c-0.07,0-0.25-0.05-0.52-0.14c-0.28-0.09-0.52-0.14-0.74-0.14
				c-0.29,0-0.52,0.08-0.71,0.24c-0.18,0.16-0.33,0.39-0.43,0.71c-0.1,0.32-0.17,0.69-0.21,1.12
				C294.23,492.81,294.21,493.34,294.21,493.96z"/>
		</g>
		<g>
			<path class="st19" d="M304.75,494.24c0,0.57-0.13,1.06-0.4,1.46c-0.27,0.41-0.66,0.71-1.18,0.92c-0.52,0.2-1.15,0.31-1.9,0.31
				c-0.7,0-1.32-0.11-1.83-0.34c-0.51-0.23-0.88-0.51-1.12-0.85c-0.24-0.34-0.37-0.68-0.37-1.02c0-0.23,0.08-0.42,0.24-0.58
				c0.15-0.16,0.35-0.24,0.58-0.24c0.21,0,0.37,0.05,0.48,0.16c0.11,0.11,0.21,0.26,0.32,0.45c0.2,0.37,0.44,0.64,0.73,0.83
				c0.28,0.18,0.66,0.27,1.16,0.27c0.39,0,0.72-0.09,0.97-0.28c0.25-0.18,0.38-0.39,0.38-0.63c0-0.37-0.13-0.63-0.39-0.79
				c-0.27-0.17-0.7-0.33-1.3-0.48c-0.68-0.18-1.24-0.36-1.66-0.55c-0.43-0.2-0.77-0.45-1.03-0.77c-0.26-0.31-0.39-0.71-0.39-1.17
				c0-0.42,0.12-0.81,0.36-1.17c0.24-0.37,0.59-0.66,1.05-0.88c0.46-0.22,1.02-0.33,1.67-0.33c0.51,0,0.97,0.06,1.38,0.17
				c0.41,0.11,0.75,0.26,1.02,0.45c0.27,0.19,0.48,0.39,0.62,0.62c0.14,0.23,0.21,0.45,0.21,0.67c0,0.24-0.07,0.43-0.23,0.59
				c-0.15,0.14-0.37,0.22-0.65,0.22c-0.21,0-0.38-0.06-0.52-0.18c-0.14-0.12-0.31-0.3-0.49-0.54c-0.15-0.2-0.33-0.37-0.53-0.49
				c-0.2-0.12-0.48-0.18-0.82-0.18c-0.36,0-0.66,0.08-0.89,0.24c-0.24,0.16-0.36,0.36-0.36,0.59c0,0.22,0.09,0.39,0.26,0.53
				c0.18,0.14,0.41,0.25,0.71,0.34c0.3,0.09,0.7,0.2,1.22,0.33c0.61,0.16,1.11,0.34,1.5,0.56c0.39,0.21,0.68,0.47,0.88,0.77
				C304.65,493.53,304.75,493.87,304.75,494.24z"/>
		</g>
		<g>
			<path class="st19" d="M306.99,496.94c-0.3,0-0.56-0.1-0.77-0.3c-0.22-0.2-0.33-0.48-0.33-0.84c0-0.31,0.1-0.57,0.31-0.79
				c0.21-0.22,0.47-0.33,0.77-0.33c0.3,0,0.56,0.11,0.77,0.33c0.22,0.22,0.33,0.49,0.33,0.8c0,0.36-0.11,0.64-0.33,0.84
				C307.53,496.84,307.28,496.94,306.99,496.94z"/>
			<path class="st19" d="M317.73,492.75c0,0.61-0.09,1.18-0.28,1.7c-0.18,0.51-0.45,0.96-0.8,1.34c-0.35,0.37-0.76,0.65-1.25,0.86
				c-0.48,0.2-1.02,0.3-1.63,0.3c-0.6,0-1.14-0.1-1.62-0.3c-0.48-0.2-0.89-0.49-1.24-0.87c-0.36-0.38-0.62-0.82-0.8-1.33
				c-0.18-0.52-0.27-1.08-0.27-1.7c0-0.62,0.09-1.2,0.28-1.71c0.19-0.52,0.45-0.96,0.79-1.33c0.34-0.37,0.76-0.65,1.25-0.85
				c0.49-0.2,1.02-0.3,1.62-0.3c0.6,0,1.14,0.1,1.63,0.3c0.49,0.2,0.91,0.49,1.25,0.86c0.35,0.37,0.61,0.82,0.79,1.33
				C317.63,491.56,317.73,492.13,317.73,492.75z M315.74,492.75c0-0.84-0.18-1.5-0.53-1.96c-0.36-0.47-0.83-0.7-1.43-0.7
				c-0.39,0-0.72,0.11-1.02,0.31c-0.3,0.21-0.52,0.52-0.68,0.93c-0.16,0.4-0.24,0.88-0.24,1.42c0,0.54,0.08,1.01,0.23,1.41
				c0.16,0.4,0.38,0.71,0.68,0.93c0.29,0.21,0.63,0.32,1.03,0.32c0.6,0,1.07-0.23,1.43-0.71
				C315.56,494.23,315.74,493.58,315.74,492.75z"/>
		</g>
		<g>
			<path class="st19" d="M321.25,493.96v1.72c0,0.42-0.09,0.73-0.28,0.95c-0.19,0.2-0.43,0.31-0.71,0.31
				c-0.29,0-0.52-0.11-0.71-0.32c-0.19-0.21-0.28-0.52-0.28-0.94v-5.75c0-0.93,0.33-1.39,0.96-1.39c0.33,0,0.56,0.11,0.71,0.32
				c0.14,0.22,0.23,0.54,0.24,0.96c0.23-0.42,0.47-0.74,0.72-0.96c0.25-0.21,0.58-0.32,0.99-0.32c0.42,0,0.83,0.11,1.21,0.32
				c0.39,0.22,0.59,0.51,0.59,0.86c0,0.25-0.08,0.46-0.25,0.62c-0.17,0.16-0.35,0.25-0.54,0.25c-0.07,0-0.24-0.05-0.52-0.14
				c-0.28-0.09-0.52-0.14-0.74-0.14c-0.29,0-0.52,0.08-0.71,0.24c-0.18,0.16-0.32,0.39-0.43,0.71c-0.1,0.32-0.17,0.69-0.21,1.12
				C321.27,492.81,321.25,493.34,321.25,493.96z"/>
		</g>
		<g>
			<path class="st19" d="M332.69,490.06v6c0,0.69-0.08,1.28-0.21,1.77c-0.14,0.5-0.37,0.91-0.67,1.23
				c-0.31,0.32-0.72,0.56-1.21,0.72c-0.5,0.15-1.12,0.23-1.87,0.23c-0.68,0-1.29-0.1-1.83-0.29c-0.54-0.2-0.95-0.46-1.24-0.78
				c-0.29-0.31-0.44-0.64-0.44-0.97c0-0.25,0.08-0.46,0.25-0.61c0.16-0.16,0.36-0.24,0.59-0.24c0.29,0,0.54,0.13,0.76,0.4
				c0.11,0.14,0.22,0.28,0.33,0.41c0.11,0.14,0.24,0.26,0.38,0.36c0.14,0.1,0.31,0.17,0.5,0.22c0.19,0.05,0.41,0.07,0.67,0.07
				c0.51,0,0.91-0.08,1.19-0.22c0.28-0.15,0.48-0.36,0.6-0.62c0.11-0.27,0.18-0.55,0.19-0.86c0.02-0.31,0.04-0.8,0.05-1.47
				c-0.3,0.44-0.66,0.78-1.06,1.01c-0.4,0.23-0.88,0.35-1.42,0.35c-0.67,0-1.25-0.17-1.74-0.53c-0.5-0.35-0.88-0.84-1.14-1.48
				c-0.26-0.63-0.4-1.37-0.4-2.2c0-0.62,0.08-1.18,0.24-1.68c0.16-0.5,0.39-0.92,0.69-1.26c0.3-0.34,0.64-0.6,1.03-0.78
				c0.39-0.17,0.82-0.26,1.29-0.26c0.56,0,1.04,0.11,1.45,0.34c0.42,0.22,0.79,0.58,1.15,1.05v-0.28c0-0.36,0.09-0.63,0.25-0.84
				c0.17-0.19,0.39-0.29,0.65-0.29c0.38,0,0.64,0.13,0.76,0.39C332.63,489.19,332.69,489.57,332.69,490.06z M326.96,492.67
				c0,0.83,0.18,1.47,0.53,1.9c0.35,0.43,0.8,0.64,1.36,0.64c0.33,0,0.64-0.1,0.93-0.28c0.29-0.18,0.53-0.46,0.71-0.83
				c0.19-0.37,0.27-0.82,0.27-1.35c0-0.84-0.18-1.5-0.53-1.96c-0.35-0.47-0.82-0.71-1.4-0.71c-0.56,0-1.02,0.23-1.36,0.68
				C327.13,491.21,326.96,491.85,326.96,492.67z"/>
		</g>
	</g>
	<g>
		<g>
			<path class="st19" d="M232.44,468.11c0-3.34,1.13-6.19,3.39-8.56c2.27-2.37,5-3.55,8.2-3.55c3.19,0,5.92,1.18,8.19,3.55
				c2.26,2.37,3.4,5.22,3.4,8.56c0,3.34-1.13,6.2-3.4,8.56c-2.27,2.37-5,3.55-8.19,3.55c-3.2,0-5.94-1.18-8.2-3.55
				C233.57,474.3,232.44,471.45,232.44,468.11z M235.42,468.11c0,2.63,0.83,4.85,2.5,6.66c1.66,1.81,3.7,2.72,6.12,2.72
				c2.41,0,4.45-0.91,6.11-2.72c1.67-1.81,2.49-4.03,2.49-6.66c0-2.62-0.83-4.84-2.49-6.66c-1.66-1.81-3.7-2.72-6.11-2.72
				c-2.42,0-4.46,0.9-6.12,2.72C236.25,463.26,235.42,465.48,235.42,468.11z M246.97,469.96h2.93c-0.21,1.58-0.86,2.82-1.93,3.7
				c-1,0.87-2.21,1.3-3.62,1.3c-1.92,0-3.45-0.67-4.59-2.02c-1.08-1.28-1.62-2.93-1.62-4.94c0-2.07,0.54-3.72,1.61-4.97
				c1.07-1.24,2.58-1.87,4.54-1.87c1.45,0,2.68,0.39,3.68,1.17c1.06,0.84,1.71,2.03,1.93,3.55h-2.93c-0.25-1.32-1.06-1.98-2.44-1.98
				c-2.27,0-3.4,1.34-3.4,4.03c0,1.26,0.29,2.29,0.88,3.09c0.58,0.8,1.41,1.21,2.47,1.21C246.05,472.23,246.88,471.47,246.97,469.96
				z"/>
		</g>
		<polygon class="st19" points="237.13,475.7 238.82,477.13 251.25,461.17 249.56,459.74 		"/>
	</g>
</g>
</svg>
